<?xml version='1.0' encoding='utf-8'?>
<svg xmlns="http://www.w3.org/2000/svg" width="793.75mm" height="926.49mm" version="1.1" viewBox="0 0 793.75 926.49"> <g transform="translate(-.17145 -73.37)" fill-rule="evenodd"> <rect x="232.43" y="284.25" width="3.0238" height="2.2679" fill="#00f" stroke-width=".26458"/> <path d="m156.22 73.371c-63.936 3.7907-140.7 89.227-128.96 159.95 9.4605 56.992 51.591 96.76 104.65 124.82h-131.74v187.24l359.51-0.88722s-2.5346-89.712-2.5346-185.48h76.307l1.733 187.55s219.79-1.1826 358.74-1.1826v-187.24h-110.19c40.451-24.333 70.849-52.738 80.019-78.583 19.212-63.792-28.2-165.73-93.962-176.4-122.34-19.846-225.91 159.3-275.76 254.98h-11.306c-9.4746-126.9-153.43-285.13-226.51-284.77zm277.95 926.49h336.15v-439.61l-333.78 0.31984s-2.3715 320.82-2.3715 439.29zm-408.75-439.61v439.61h336.15l-0.273-437.84s-172.39-1.7707-335.88-1.7707zm661.87-420.18c70.669-0.66431-111.6 138.9-189.79 197.14l-39.903 19.128-17.184 2.5224c41.448-35.844 43.063-195 239.94-218.31 2.5627-0.30343 4.8743-0.46195 6.9453-0.48139zm-623.34 43.422c49.232 1.0947 238.3 150.72 269.8 174.66l-120.13-4e-3c-53.058-14.987-112.01-50.266-155.97-149.2-8.1242-18.284-4.791-25.707 6.2997-25.461z" stroke-width="1.4032"/> </g> </svg>